<svg width="48" height="48" viewBox="0 0 48 48" fill="none" xmlns="http://www.w3.org/2000/svg">
<path fill-rule="evenodd" clip-rule="evenodd" d="M43.8486 34.6058C45.5405 31.446 46.5 27.835 46.5 24C46.5 11.5736 36.4264 1.5 24 1.5C22.7223 1.5 21.4695 1.6065 20.25 1.8111C18.0641 2.17782 15.9851 2.8597 14.0613 3.80844C13.7963 3.93914 13.5342 4.07492 13.2752 4.21563C12.9564 4.38882 12.6422 4.56949 12.3329 4.7574C5.83834 8.70361 1.5 15.8452 1.5 24C1.5 36.4264 11.5736 46.5 24 46.5C26.6298 46.5 29.1542 46.0488 31.5 45.2197C35.043 43.9675 38.1786 41.853 40.6549 39.1285C40.6826 39.098 40.7102 39.0675 40.7377 39.0369C41.441 38.2545 42.0903 37.4226 42.6796 36.5469V36.5469C43.0755 35.9587 43.4444 35.3507 43.7844 34.7248C43.8059 34.6853 43.8273 34.6456 43.8486 34.6058ZM31.5 42.0055C29.1912 42.9683 26.6577 43.5 24 43.5C13.2304 43.5 4.5 34.7696 4.5 24C4.5 21.8224 4.85695 19.7281 5.51555 17.7725C5.83888 17.992 6.06622 18.331 6.14389 18.7194L6.31187 19.5593C6.35349 19.7674 6.43879 19.9643 6.56214 20.137L8.04197 22.2087C8.16996 22.3879 8.18842 22.6232 8.08994 22.8201C7.96458 23.0709 8.0314 23.3751 8.25029 23.5502L9.2283 24.3326C9.43855 24.5008 9.75001 24.3511 9.75001 24.0819C9.75001 24.0282 9.73653 23.9753 9.7108 23.9281L7.53175 19.9332C7.51093 19.895 7.50001 19.8522 7.50001 19.8087C7.50001 19.5697 7.79545 19.4574 7.95425 19.636L10.1211 22.0738C10.3652 22.3483 10.5 22.7039 10.5 23.0713C10.5 23.6395 10.821 24.1605 11.3292 24.4146L14.3976 25.9488C14.7573 26.1287 15.1919 26.0582 15.4763 25.7737C15.6516 25.5985 15.8893 25.5 16.1371 25.5H18.1287C18.5265 25.5 18.908 25.658 19.1894 25.9393L20.145 26.895C20.2148 26.9648 20.2914 27.0276 20.3736 27.0824L21.8776 28.0851C22.2625 28.3417 22.7553 28.3723 23.1691 28.1655L23.5257 27.9872C23.8089 27.8455 24.1511 27.9011 24.375 28.125C24.599 28.3489 24.6545 28.6911 24.5128 28.9743L24.1584 29.6833C24.0542 29.8916 24 30.1212 24 30.3541V31.1893C24 31.3883 24.079 31.579 24.2197 31.7197L24.375 31.875C24.5821 32.0821 24.5821 32.4179 24.375 32.625C24.1679 32.8321 24.1679 33.1679 24.375 33.375L27.4996 36.4996C27.6643 36.6643 27.865 36.7883 28.0859 36.862L29.8989 37.4663C29.9662 37.4887 30.0319 37.5159 30.0954 37.5477L30.6708 37.8354C31.179 38.0895 31.5 38.6089 31.5 39.1771V42.0055ZM43.3715 26.2508C43.3554 26.2503 43.3392 26.25 43.323 26.25H38.3385C37.8246 26.25 37.3548 25.9597 37.125 25.5C36.8952 25.0404 36.4254 24.75 35.9115 24.75H34.1041C33.8712 24.75 33.6416 24.6958 33.4333 24.5916L32.5667 24.1584C32.3584 24.0542 32.1288 24 31.8959 24H27.0528C26.5513 24 26.0829 24.2507 25.8047 24.668L25.1953 25.5821C24.9171 25.9994 24.4488 26.25 23.9472 26.25H23.6371C23.3893 26.25 23.1516 26.3485 22.9763 26.5237C22.6919 26.8082 22.2573 26.8787 21.8976 26.6988L21.6925 26.5962C21.2681 26.384 21 25.9503 21 25.4758V24.75C21 24.3574 20.6475 24.0588 20.2602 24.1233L19.8597 24.1901C19.2788 24.2869 18.75 23.8389 18.75 23.25V22.2135C18.75 21.656 18.1633 21.2934 17.6646 21.5427C17.4105 21.6698 17.25 21.9294 17.25 22.2135V22.5C17.25 22.9597 16.9903 23.3799 16.5792 23.5854L16.5576 23.5962C16.0753 23.8374 15.4928 23.7428 15.1116 23.3616L14.6894 22.9393C14.408 22.658 14.25 22.2765 14.25 21.8787V20.0303C14.25 19.6908 14.3849 19.3651 14.625 19.125C14.8651 18.8849 15.1908 18.75 15.5303 18.75H16.875C17.0821 18.75 17.25 18.5821 17.25 18.375C17.25 18.1679 17.4179 18 17.625 18H18.6615C19.1754 18 19.6452 18.2904 19.875 18.75L20.1219 19.2438C20.2004 19.4008 20.3609 19.5 20.5365 19.5C20.7925 19.5 21 19.2925 21 19.0365V18.8547C21 18.7854 20.9888 18.7165 20.9669 18.6507L20.482 17.196C20.3356 16.7568 20.4002 16.2747 20.657 15.8896L21.4981 14.6279C21.6624 14.3815 21.75 14.092 21.75 13.7958V13.1041C21.75 12.8712 21.8042 12.6416 21.9084 12.4333L22.3417 11.5667C22.4458 11.3584 22.5 11.1288 22.5 10.8959V10.7439C22.5 10.5835 22.5373 10.4253 22.6091 10.2819L22.9744 9.55132C23.11 9.28009 23.4714 9.22143 23.6859 9.43586C23.8594 9.60935 24.1407 9.60935 24.3142 9.43586L25.9394 7.81066C26.5251 7.22488 26.5251 6.27513 25.9394 5.68934L25.0004 4.75039C24.9074 4.65737 24.8028 4.5773 24.6897 4.51197C35.1398 4.87521 43.5 13.4613 43.5 24C43.5 24.7612 43.4564 25.5123 43.3715 26.2508Z" fill="white"/>
</svg>
