<svg width="48" height="48" viewBox="0 0 48 48" fill="none" xmlns="http://www.w3.org/2000/svg">
<path fill-rule="evenodd" clip-rule="evenodd" d="M46.5 24C46.5 36.4265 36.4264 46.5 24 46.5C11.5736 46.5 1.5 36.4265 1.5 24C1.5 11.5735 11.5736 1.5 24 1.5C36.4264 1.5 46.5 11.5735 46.5 24ZM43.5 24C43.5 25.0203 43.4217 26.022 43.2707 27H30C29.1716 27 28.5 27.6716 28.5 28.5C28.5 29.3284 27.8284 30 27 30H5.44048C5.12746 29.031 4.88818 28.0287 4.72934 27H24C24.8284 27 25.5 26.3284 25.5 25.5C25.5 24.6716 26.1716 24 27 24H43.5ZM33 30H42.5595C42.2232 31.041 41.8017 32.0438 41.3033 33H36C35.1716 33 34.5 33.6716 34.5 34.5C34.5 35.3284 33.8284 36 33 36H8.62848C7.89729 35.0647 7.2496 34.0609 6.69662 33H30C30.8284 33 31.5 32.3284 31.5 31.5C31.5 30.6716 32.1716 30 33 30ZM11.5393 39C13.0193 40.2308 14.6844 41.2469 16.4867 42H31.5132C33.3803 41.2198 35.1001 40.1576 36.6195 38.8665C36.4307 38.9522 36.2209 39 36 39H11.5393ZM37.2846 38.2749C38.0383 37.5731 38.7364 36.8124 39.3715 36H39C38.1716 36 37.5 36.6716 37.5 37.5C37.5 37.7834 37.4213 38.0488 37.2846 38.2749ZM43.2707 21H24C23.1716 21 22.5 21.6716 22.5 22.5C22.5 23.3284 21.8284 24 21 24H4.5C4.5 22.7173 4.62387 21.4636 4.86026 20.25H18C18.8284 20.25 19.5 19.5784 19.5 18.75C19.5 17.9216 20.1716 17.25 21 17.25H42.3001C42.7425 18.449 43.0704 19.7034 43.2707 21ZM40.8913 14.25H18C17.1716 14.25 16.5 14.9216 16.5 15.75C16.5 16.5784 15.8284 17.25 15 17.25H5.69989C6.08546 16.205 6.55801 15.202 7.10875 14.25H12C12.8284 14.25 13.5 13.5784 13.5 12.75C13.5 11.9216 14.1716 11.25 15 11.25H38.7546C39.557 12.1776 40.2733 13.1818 40.8913 14.25ZM10.4881 9.94025C10.4057 10.5912 9.9061 11.1121 9.26569 11.2266C9.65359 10.7794 10.0615 10.3502 10.4881 9.94025ZM18.6256 5.25C16.3945 5.88831 14.327 6.91406 12.5005 8.25H35.4995C33.673 6.91406 31.6055 5.88831 29.3744 5.25H18.6256Z" fill="white"/>
</svg>
