<svg width="48" height="48" viewBox="0 0 48 48" fill="none" xmlns="http://www.w3.org/2000/svg">
<path d="M24 10.5C24.8284 10.5 25.5 9.82843 25.5 9C25.5 8.17157 24.8284 7.5 24 7.5C23.1716 7.5 22.5 8.17157 22.5 9C22.5 9.82843 23.1716 10.5 24 10.5Z" fill="white"/>
<path d="M25.5 39C25.5 39.8284 24.8284 40.5 24 40.5C23.1716 40.5 22.5 39.8284 22.5 39C22.5 38.1716 23.1716 37.5 24 37.5C24.8284 37.5 25.5 38.1716 25.5 39Z" fill="white"/>
<path d="M39 25.5C39.8284 25.5 40.5 24.8284 40.5 24C40.5 23.1716 39.8284 22.5 39 22.5C38.1716 22.5 37.5 23.1716 37.5 24C37.5 24.8284 38.1716 25.5 39 25.5Z" fill="white"/>
<path d="M10.5 24C10.5 24.8284 9.82843 25.5 9 25.5C8.17157 25.5 7.5 24.8284 7.5 24C7.5 23.1716 8.17157 22.5 9 22.5C9.82843 22.5 10.5 23.1716 10.5 24Z" fill="white"/>
<path d="M24 27C25.6569 27 27 25.6569 27 24C27 22.3431 25.6569 21 24 21C22.3431 21 21 22.3431 21 24C21 25.6569 22.3431 27 24 27Z" fill="white"/>
<path d="M36 15C36 16.6569 34.6569 18 33 18C31.3431 18 30 16.6569 30 15C30 13.3431 31.3431 12 33 12C34.6569 12 36 13.3431 36 15Z" fill="white"/>
<path d="M15 18C16.6569 18 18 16.6569 18 15C18 13.3431 16.6569 12 15 12C13.3431 12 12 13.3431 12 15C12 16.6569 13.3431 18 15 18Z" fill="white"/>
<path d="M18 33C18 34.6569 16.6569 36 15 36C13.3431 36 12 34.6569 12 33C12 31.3431 13.3431 30 15 30C16.6569 30 18 31.3431 18 33Z" fill="white"/>
<path d="M33 36C34.6569 36 36 34.6569 36 33C36 31.3431 34.6569 30 33 30C31.3431 30 30 31.3431 30 33C30 34.6569 31.3431 36 33 36Z" fill="white"/>
<path fill-rule="evenodd" clip-rule="evenodd" d="M46.5 24C46.5 36.4264 36.4264 46.5 24 46.5C11.5736 46.5 1.5 36.4264 1.5 24C1.5 11.5736 11.5736 1.5 24 1.5C36.4264 1.5 46.5 11.5736 46.5 24ZM43.5 24C43.5 34.7696 34.7696 43.5 24 43.5C13.2304 43.5 4.5 34.7696 4.5 24C4.5 13.2304 13.2304 4.5 24 4.5C34.7696 4.5 43.5 13.2304 43.5 24Z" fill="white"/>
</svg>
