<svg width="48" height="48" viewBox="0 0 48 48" fill="none" xmlns="http://www.w3.org/2000/svg">
<path fill-rule="evenodd" clip-rule="evenodd" d="M24 46.5C36.4264 46.5 46.5 36.4264 46.5 24C46.5 11.5736 36.4264 1.5 24 1.5C11.5736 1.5 1.5 11.5736 1.5 24C1.5 36.4264 11.5736 46.5 24 46.5ZM24 43.5C24.761 43.5 25.5118 43.4564 26.25 43.3716V39C26.25 38.1716 26.9216 37.5 27.75 37.5H33.75C35.4069 37.5 36.75 36.1569 36.75 34.5V27C36.75 26.1716 37.4216 25.5 38.25 25.5H43.4432C43.4808 25.0049 43.5 24.5047 43.5 24C43.5 23.4953 43.4808 22.9951 43.4432 22.5H38.25C37.4216 22.5 36.75 21.8284 36.75 21V19.5C36.75 17.8431 35.4069 16.5 33.75 16.5H18C17.1716 16.5 16.5 15.8284 16.5 15C16.5 14.1716 17.1716 13.5 18 13.5H19.5C21.1569 13.5 22.5 12.1569 22.5 10.5V9C22.5 8.17157 23.1716 7.5 24 7.5H34.3971C31.3877 5.59971 27.8223 4.5 24 4.5C22.4512 4.5 20.9446 4.68057 19.5 5.0218V9C19.5 9.82843 18.8284 10.5 18 10.5H9.92872C9.04728 11.4185 8.25489 12.4231 7.56545 13.5H12C12.8284 13.5 13.5 14.1716 13.5 15V16.5C13.5 18.1569 14.8431 19.5 16.5 19.5H32.25C33.0784 19.5 33.75 20.1716 33.75 21V33C33.75 33.8284 33.0784 34.5 32.25 34.5H27.75C26.9216 34.5 26.25 33.8284 26.25 33V31.5C26.25 29.8431 24.9069 28.5 23.25 28.5H5.0218C5.2661 29.5343 5.59277 30.5367 5.99449 31.5H21.75C22.5784 31.5 23.25 32.1716 23.25 33V39C23.25 39.8284 22.5784 40.5 21.75 40.5H13.6029C16.6123 42.4003 20.1777 43.5 24 43.5Z" fill="white"/>
</svg>
