<svg width="48" height="48" viewBox="0 0 48 48" fill="none" xmlns="http://www.w3.org/2000/svg">
<path fill-rule="evenodd" clip-rule="evenodd" d="M24 46.5C36.4264 46.5 46.5 36.4264 46.5 24C46.5 11.5736 36.4264 1.5 24 1.5C11.5736 1.5 1.5 11.5736 1.5 24C1.5 36.4264 11.5736 46.5 24 46.5ZM24 43.5C27.8223 43.5 31.3877 42.4003 34.3971 40.5H21.75C20.9216 40.5 20.25 39.8284 20.25 39C20.25 38.1716 20.9216 37.5 21.75 37.5H38.0713C38.9527 36.5815 39.7451 35.5769 40.4345 34.5H36C35.1716 34.5 34.5 33.8284 34.5 33C34.5 32.1716 35.1716 31.5 36 31.5H42L42.0055 31.5C42.4072 30.5367 42.7339 29.5343 42.9782 28.5H15.75C14.9216 28.5 14.25 27.8284 14.25 27C14.25 26.1716 14.9216 25.5 15.75 25.5H43.4432C43.4808 25.0049 43.5 24.5047 43.5 24C43.5 23.4953 43.4808 22.9951 43.4432 22.5H38.25C37.4216 22.5 36.75 21.8284 36.75 21C36.75 20.1716 37.4216 19.5 38.25 19.5H42.9782C42.7339 18.4657 42.4072 17.4633 42.0055 16.5L42 16.5H18C17.1716 16.5 16.5 15.8284 16.5 15C16.5 14.1716 17.1716 13.5 18 13.5H40.4345C39.7451 12.4231 38.9527 11.4185 38.0713 10.5H32.25C31.4216 10.5 30.75 9.82843 30.75 9C30.75 8.17157 31.4216 7.5 32.25 7.5H34.3971C31.3877 5.59971 27.8223 4.5 24 4.5C20.1777 4.5 16.6123 5.59971 13.6029 7.5H26.25C27.0784 7.5 27.75 8.17157 27.75 9C27.75 9.82843 27.0784 10.5 26.25 10.5H9.92872C9.04728 11.4185 8.25489 12.4231 7.56545 13.5H12C12.8284 13.5 13.5 14.1716 13.5 15C13.5 15.8284 12.8284 16.5 12 16.5H6L5.99449 16.5C5.59277 17.4633 5.26611 18.4657 5.0218 19.5H32.25C33.0784 19.5 33.75 20.1716 33.75 21C33.75 21.8284 33.0784 22.5 32.25 22.5H4.55683C4.51917 22.9951 4.5 23.4953 4.5 24C4.5 24.5047 4.51917 25.0049 4.55683 25.5H9.75C10.5784 25.5 11.25 26.1716 11.25 27C11.25 27.8284 10.5784 28.5 9.75 28.5H5.0218C5.2661 29.5343 5.59277 30.5367 5.99449 31.5H30C30.8284 31.5 31.5 32.1716 31.5 33C31.5 33.8284 30.8284 34.5 30 34.5H7.56545C8.25489 35.5769 9.04728 36.5815 9.92872 37.5H15.75C16.5784 37.5 17.25 38.1716 17.25 39C17.25 39.8284 16.5784 40.5 15.75 40.5H13.6029C16.6123 42.4003 20.1777 43.5 24 43.5Z" fill="white"/>
</svg>
