<svg width="48" height="48" viewBox="0 0 48 48" fill="none" xmlns="http://www.w3.org/2000/svg">
<path fill-rule="evenodd" clip-rule="evenodd" d="M38.3951 32.0702C35.5686 37.101 30.1813 40.5 24 40.5C17.8187 40.5 12.4314 37.101 9.60489 32.0702C4.65207 30.1441 1.5 27.2439 1.5 24C1.5 20.7561 4.65211 17.8559 9.60493 15.9298C12.4314 10.899 17.8188 7.5 24 7.5C30.1812 7.5 35.5686 10.899 38.3951 15.9298C43.3479 17.8559 46.5 20.7561 46.5 24C46.5 27.2439 43.3479 30.1441 38.3951 32.0702ZM33.5906 33.5012C31.1441 35.9705 27.7507 37.5 24 37.5C20.2493 37.5 16.8559 35.9705 14.4094 33.5012C17.3188 34.1418 20.5697 34.5 24 34.5C27.4303 34.5 30.6812 34.1418 33.5906 33.5012ZM36.2625 29.6541C32.9173 30.7905 28.6816 31.5 24 31.5C19.3184 31.5 15.0827 30.7905 11.7375 29.6541C11.564 29.2784 11.4072 28.8933 11.2682 28.5H26.25C27.0784 28.5 27.75 27.8284 27.75 27C27.75 26.1716 27.0784 25.5 26.25 25.5H10.5824C10.528 25.0074 10.5 24.507 10.5 24C10.5 23.493 10.528 22.9926 10.5824 22.5H16.5C17.3284 22.5 18 21.8284 18 21C18 20.1716 17.3284 19.5 16.5 19.5H11.2682C11.6457 18.4319 12.1538 17.4256 12.7733 16.5H23.25C24.0784 16.5 24.75 15.8284 24.75 15C24.75 14.1716 24.0784 13.5 23.25 13.5H15.514C17.8326 11.6237 20.7851 10.5 24 10.5C27.2149 10.5 30.1674 11.6237 32.486 13.5H29.25C28.4216 13.5 27.75 14.1716 27.75 15C27.75 15.8284 28.4216 16.5 29.25 16.5H35.2267C35.8462 17.4256 36.3543 18.4319 36.7318 19.5H22.5C21.6716 19.5 21 20.1716 21 21C21 21.8284 21.6716 22.5 22.5 22.5H37.4176C37.472 22.9926 37.5 23.493 37.5 24C37.5 24.507 37.472 25.0074 37.4176 25.5H32.25C31.4216 25.5 30.75 26.1716 30.75 27C30.75 27.8284 31.4216 28.5 32.25 28.5H36.7318C36.6777 28.6531 36.6209 28.8049 36.5615 28.9554C36.4682 29.1916 36.3685 29.4247 36.2625 29.6541ZM40.0124 20.0023C42.7283 21.5623 43.5 23.0955 43.5 24C43.5 24.9045 42.7283 26.4377 40.0124 27.9977C40.3309 26.7177 40.5 25.3786 40.5 24C40.5 22.6214 40.3309 21.2823 40.0124 20.0023ZM7.98761 20.0023C5.27174 21.5623 4.5 23.0955 4.5 24C4.5 24.9045 5.27174 26.4377 7.98761 27.9977C7.66905 26.7177 7.5 25.3786 7.5 24C7.5 22.6214 7.66905 21.2823 7.98761 20.0023Z" fill="white"/>
</svg>
