<svg width="48" height="48" viewBox="0 0 48 48" fill="none" xmlns="http://www.w3.org/2000/svg">
<path fill-rule="evenodd" clip-rule="evenodd" d="M24 46.5C36.4265 46.5 46.5 36.4265 46.5 24C46.5 11.5735 36.4265 1.5 24 1.5C11.5735 1.5 1.5 11.5735 1.5 24C1.5 36.4265 11.5735 46.5 24 46.5ZM29.25 40.5C29.25 38.8431 27.9068 37.5 26.25 37.5H18.75C17.0931 37.5 15.75 36.1569 15.75 34.5V31.5C15.75 29.8431 14.4068 28.5 12.75 28.5H5.02185C4.79178 27.5262 4.63477 26.5243 4.55685 25.5H19.5C21.1568 25.5 22.5 24.1569 22.5 22.5C22.5 20.8431 23.8432 19.5 25.5 19.5H26.25C27.9068 19.5 29.25 18.1569 29.25 16.5C29.25 14.8431 27.9068 13.5 26.25 13.5H7.56546C10.1178 9.51361 14.0806 6.51709 18.75 5.21484V7.5C18.75 9.15692 20.0932 10.5 21.75 10.5H29.25C30.9069 10.5 32.25 11.8433 32.25 13.5V16.5C32.25 18.1569 33.5932 19.5 35.25 19.5H42.9781C43.2082 20.4738 43.3652 21.4757 43.4431 22.5H28.5C26.8432 22.5 25.5 23.8431 25.5 25.5C25.5 27.1569 24.1568 28.5 22.5 28.5H21.75C20.0932 28.5 18.75 29.8431 18.75 31.5C18.75 33.1569 20.0932 34.5 21.75 34.5H40.4345C37.8822 38.4864 33.9194 41.4829 29.25 42.7852V40.5Z" fill="white"/>
</svg>
