<svg width="64" height="64" viewBox="0 0 64 64" fill="none" xmlns="http://www.w3.org/2000/svg">
<circle cx="32" cy="32" r="26" fill="none"/>
<path fill-rule="evenodd" clip-rule="evenodd" d="M58.4647 46.1411C60.7207 41.9279 62 37.1134 62 32C62 15.4315 48.5685 2 32 2C30.2964 2 28.6261 2.142 27 2.41479C24.0855 2.90375 21.3135 3.81294 18.7484 5.07791C18.3951 5.25219 18.0456 5.43322 17.7002 5.62084C17.2751 5.85176 16.8563 6.09265 16.4439 6.3432C7.78445 11.6048 2 21.1269 2 32C2 48.5685 15.4315 62 32 62C35.5064 62 38.8722 61.3985 42 60.2929C46.7239 58.6233 50.9048 55.804 54.2065 52.1713C54.2435 52.1307 54.2803 52.09 54.317 52.0492C55.2547 51.006 56.1204 49.8968 56.9062 48.7292C56.9062 48.7292 56.9062 48.7292 56.9062 48.7292C57.434 47.9449 57.9258 47.1343 58.3792 46.2998C58.4078 46.247 58.4364 46.1941 58.4647 46.1411ZM42 56.0073C38.9216 57.2911 35.5436 58 32 58C17.6406 58 6 46.3594 6 32C6 29.0965 6.47594 26.3041 7.35406 23.6967C7.78517 23.9893 8.08829 24.4414 8.19185 24.9592L8.41583 26.0791C8.47132 26.3565 8.58506 26.6191 8.74952 26.8493L10.7226 29.6117C10.8933 29.8506 10.9179 30.1642 10.7866 30.4269C10.6194 30.7612 10.7085 31.1668 11.0004 31.4003L12.3044 32.4435C12.5847 32.6678 13 32.4682 13 32.1092C13 32.0375 12.982 31.967 12.9477 31.9042L10.0423 26.5776C10.0146 26.5267 10 26.4696 10 26.4116C10 26.0929 10.3939 25.9432 10.6057 26.1814L13.4948 29.4317C13.8203 29.7978 14 30.2719 14 30.7617C14 31.5193 14.428 32.214 15.1056 32.5528L19.1967 34.5984C19.6764 34.8382 20.2558 34.7442 20.6351 34.365C20.8687 34.1313 21.1857 34 21.5161 34H24.1716C24.702 34 25.2107 34.2107 25.5858 34.5858L26.86 35.86C26.9531 35.9531 27.0552 36.0368 27.1648 36.1099L29.1702 37.4468C29.6833 37.7889 30.3404 37.8298 30.8921 37.554L31.3676 37.3162C31.7453 37.1274 32.2014 37.2014 32.5 37.5C32.7986 37.7986 32.8726 38.2548 32.6838 38.6325L32.2112 39.5777C32.0723 39.8554 32 40.1617 32 40.4721V41.5858C32 41.851 32.1054 42.1054 32.2929 42.2929L32.5 42.5C32.7762 42.7761 32.7762 43.2239 32.5 43.5C32.2239 43.7761 32.2239 44.2239 32.5 44.5L36.6662 48.6662C36.8857 48.8857 37.1534 49.0511 37.4479 49.1493L39.8652 49.9551C39.955 49.985 40.0425 50.0212 40.1271 50.0636L40.8944 50.4472C41.572 50.786 42 51.4785 42 52.2361V56.0073ZM57.8287 35.001C57.8072 35.0004 57.7856 35 57.7639 35H51.118C50.4328 35 49.8064 34.6129 49.5 34C49.1936 33.3871 48.5672 33 47.882 33H45.4722C45.1617 33 44.8554 32.9277 44.5777 32.7889L43.4223 32.2112C43.1446 32.0723 42.8384 32 42.5279 32H36.0704C35.4017 32 34.7772 32.3342 34.4063 32.8906L33.5938 34.1094C33.2228 34.6658 32.5984 35 31.9296 35H31.5161C31.1857 35 30.8687 35.1313 30.6351 35.365C30.2558 35.7442 29.6764 35.8382 29.1967 35.5984L28.9233 35.4616C28.3574 35.1787 28 34.6004 28 33.9678V33C28 32.4765 27.53 32.0783 27.0136 32.1644L26.4796 32.2534C25.7051 32.3825 25 31.7852 25 31V29.618C25 28.8747 24.2177 28.3912 23.5528 28.7236C23.214 28.893 23 29.2393 23 29.618V30C23 30.6129 22.6538 31.1731 22.1056 31.4472L22.0767 31.4616C21.4337 31.7831 20.6571 31.6571 20.1488 31.1488L19.5858 30.5858C19.2107 30.2107 19 29.702 19 29.1716V26.7071C19 26.2544 19.1799 25.8201 19.5 25.5C19.8202 25.1799 20.2544 25 20.7071 25H22.5C22.7762 25 23 24.7761 23 24.5C23 24.2239 23.2239 24 23.5 24H24.882C25.5672 24 26.1936 24.3871 26.5 25L26.8292 25.6584C26.9339 25.8677 27.1479 26 27.382 26C27.7233 26 28 25.7233 28 25.382V25.1396C28 25.0471 27.9851 24.9553 27.9559 24.8675L27.3093 22.928C27.1142 22.3425 27.2003 21.6996 27.5426 21.1861L28.6641 19.5039C28.8831 19.1753 29 18.7893 29 18.3945V17.4721C29 17.1616 29.0723 16.8554 29.2112 16.5777L29.7889 15.4223C29.9277 15.1446 30 14.8384 30 14.5279V14.3251C30 14.1113 30.0498 13.9004 30.1454 13.7092L30.6325 12.7351C30.8133 12.3735 31.2953 12.2952 31.5812 12.5811C31.8125 12.8125 32.1875 12.8125 32.4189 12.5811L34.5858 10.4142C35.3669 9.63317 35.3669 8.36684 34.5858 7.58579L33.3339 6.33385C33.2098 6.20983 33.0705 6.10307 32.9195 6.01596C46.8531 6.50028 58 17.9484 58 32C58 33.015 57.9418 34.0164 57.8287 35.001Z" fill="#97D234"/>
</svg>
