<svg width="64" height="64" viewBox="0 0 64 64" fill="none" xmlns="http://www.w3.org/2000/svg">
<path fill-rule="evenodd" clip-rule="evenodd" d="M62 32C62 48.5686 48.5685 62 32 62C15.4315 62 2 48.5686 2 32C2 15.4314 15.4315 2 32 2C48.5685 2 62 15.4314 62 32ZM58 32C58 33.3604 57.8956 34.696 57.6942 36H40C38.8954 36 38 36.8955 38 38C38 39.1045 37.1046 40 36 40H7.25397C6.83661 38.708 6.51758 37.3716 6.30579 36H32C33.1046 36 34 35.1045 34 34C34 32.8955 34.8954 32 36 32H58ZM44 40H56.746C56.2975 41.3879 55.7357 42.7251 55.0711 44H48C46.8954 44 46 44.8955 46 46C46 47.1045 45.1046 48 44 48H11.5046C10.5297 46.7529 9.66614 45.4146 8.92883 44H40C41.1046 44 42 43.1045 42 42C42 40.8955 42.8954 40 44 40ZM15.3857 52C17.3591 53.6411 19.5792 54.9958 21.9823 56H42.0176C44.5071 54.9597 46.8002 53.5435 48.826 51.822C48.5743 51.9363 48.2946 52 48 52H15.3857ZM49.7128 51.0332C50.7178 50.0974 51.6485 49.0833 52.4953 48H52C50.8954 48 50 48.8955 50 50C50 50.3779 49.8951 50.7317 49.7128 51.0332ZM57.6942 28H32C30.8954 28 30 28.8955 30 30C30 31.1045 29.1046 32 28 32H6C6 30.2898 6.16516 28.6182 6.48035 27H24C25.1046 27 26 26.1045 26 25C26 23.8955 26.8954 23 28 23H56.4001C56.99 24.5986 57.4272 26.2712 57.6942 28ZM54.5217 19H24C22.8954 19 22 19.8955 22 21C22 22.1045 21.1046 23 20 23H7.59985C8.11395 21.6067 8.74402 20.2693 9.47833 19H16C17.1046 19 18 18.1045 18 17C18 15.8955 18.8954 15 20 15H51.6729C52.7427 16.2368 53.6978 17.5757 54.5217 19ZM13.9841 13.2537C13.8742 14.1216 13.2081 14.8162 12.3542 14.9688C12.8715 14.3726 13.4153 13.8003 13.9841 13.2537ZM24.8342 7C21.8593 7.85107 19.1026 9.21875 16.6673 11H47.3327C44.8974 9.21875 42.1407 7.85107 39.1658 7H24.8342Z" fill="#7B7470"/>
</svg>
