<svg width="64" height="64" viewBox="0 0 64 64" fill="none" xmlns="http://www.w3.org/2000/svg">
<path d="M32 44C38.6274 44 44 38.6274 44 32C44 25.3726 38.6274 20 32 20C25.3726 20 20 25.3726 20 32C20 38.6274 25.3726 44 32 44Z" fill="white"/>
<path fill-rule="evenodd" clip-rule="evenodd" d="M59.3905 37.8381C57.1044 48.6168 48.6168 57.1044 37.8381 59.3905C37.2108 62.0337 34.8351 64 32 64C29.1649 64 26.7891 62.0337 26.1619 59.3905C15.3832 57.1044 6.89564 48.6168 4.60951 37.8381C1.96628 37.2108 0 34.8351 0 32C0 29.1649 1.96628 26.7891 4.60951 26.1619C6.89564 15.3832 15.3832 6.89564 26.1619 4.60951C26.7891 1.96628 29.1649 0 32 0C34.8351 0 37.2108 1.96628 37.8381 4.60951C48.6168 6.89564 57.1044 15.3832 59.3905 26.1619C62.0337 26.7891 64 29.1649 64 32C64 34.8351 62.0337 37.2108 59.3905 37.8381ZM26.5963 55.3892C17.6805 53.3377 10.6623 46.3195 8.6108 37.4037C10.6166 36.4328 12 34.378 12 32C12 29.622 10.6166 27.5672 8.6108 26.5963C10.6623 17.6805 17.6805 10.6623 26.5963 8.6108C27.5672 10.6166 29.622 12 32 12C34.378 12 36.4328 10.6166 37.4037 8.6108C46.3195 10.6623 53.3377 17.6805 55.3892 26.5963C53.3834 27.5672 52 29.622 52 32C52 34.378 53.3834 36.4328 55.3892 37.4037C53.3377 46.3195 46.3195 53.3377 37.4037 55.3892C36.4328 53.3834 34.378 52 32 52C29.622 52 27.5672 53.3834 26.5963 55.3892Z" fill="white"/>
</svg>
