<svg width="64" height="64" viewBox="0 0 64 64" fill="none" xmlns="http://www.w3.org/2000/svg">
<path d="M32 14C33.1046 14 34 13.1046 34 12C34 10.8954 33.1046 10 32 10C30.8954 10 30 10.8954 30 12C30 13.1046 30.8954 14 32 14Z" fill="#C3521F"/>
<path d="M34 52C34 53.1046 33.1046 54 32 54C30.8954 54 30 53.1046 30 52C30 50.8954 30.8954 50 32 50C33.1046 50 34 50.8954 34 52Z" fill="#C3521F"/>
<path d="M52 34C53.1046 34 54 33.1046 54 32C54 30.8954 53.1046 30 52 30C50.8954 30 50 30.8954 50 32C50 33.1046 50.8954 34 52 34Z" fill="#C3521F"/>
<path d="M14 32C14 33.1046 13.1046 34 12 34C10.8954 34 10 33.1046 10 32C10 30.8954 10.8954 30 12 30C13.1046 30 14 30.8954 14 32Z" fill="#C3521F"/>
<path d="M32 36C34.2091 36 36 34.2091 36 32C36 29.7909 34.2091 28 32 28C29.7909 28 28 29.7909 28 32C28 34.2091 29.7909 36 32 36Z" fill="#C3521F"/>
<path d="M48 20C48 22.2091 46.2091 24 44 24C41.7909 24 40 22.2091 40 20C40 17.7909 41.7909 16 44 16C46.2091 16 48 17.7909 48 20Z" fill="#C3521F"/>
<path d="M20 24C22.2091 24 24 22.2091 24 20C24 17.7909 22.2091 16 20 16C17.7909 16 16 17.7909 16 20C16 22.2091 17.7909 24 20 24Z" fill="#C3521F"/>
<path d="M24 44C24 46.2091 22.2091 48 20 48C17.7909 48 16 46.2091 16 44C16 41.7909 17.7909 40 20 40C22.2091 40 24 41.7909 24 44Z" fill="#C3521F"/>
<path d="M44 48C46.2091 48 48 46.2091 48 44C48 41.7909 46.2091 40 44 40C41.7909 40 40 41.7909 40 44C40 46.2091 41.7909 48 44 48Z" fill="#C3521F"/>
<path fill-rule="evenodd" clip-rule="evenodd" d="M62 32C62 48.5685 48.5685 62 32 62C15.4315 62 2 48.5685 2 32C2 15.4315 15.4315 2 32 2C48.5685 2 62 15.4315 62 32ZM58 32C58 46.3594 46.3594 58 32 58C17.6406 58 6 46.3594 6 32C6 17.6406 17.6406 6 32 6C46.3594 6 58 17.6406 58 32Z" fill="#C3521F"/>
</svg>
