<svg width="64" height="64" viewBox="0 0 64 64" fill="none" xmlns="http://www.w3.org/2000/svg">
<path fill-rule="evenodd" clip-rule="evenodd" d="M32 62C48.5685 62 62 48.5685 62 32C62 15.4315 48.5685 2 32 2C15.4315 2 2 15.4315 2 32C2 48.5685 15.4315 62 32 62ZM32 58C33.0146 58 34.0157 57.9419 35 57.8288V52C35 50.8954 35.8954 50 37 50H45C47.2091 50 49 48.2091 49 46V36C49 34.8954 49.8954 34 51 34H57.9242C57.9744 33.3399 58 32.6729 58 32C58 31.3271 57.9744 30.6601 57.9242 30H51C49.8954 30 49 29.1046 49 28V26C49 23.7909 47.2091 22 45 22H24C22.8954 22 22 21.1046 22 20C22 18.8954 22.8954 18 24 18H26C28.2091 18 30 16.2091 30 14V12C30 10.8954 30.8954 10 32 10H45.8627C41.8502 7.46629 37.0963 6 32 6C29.9349 6 27.9261 6.24075 26 6.69573V12C26 13.1046 25.1046 14 24 14H13.2383C12.063 15.2247 11.0065 16.5642 10.0873 18H16C17.1046 18 18 18.8954 18 20V22C18 24.2091 19.7909 26 22 26H43C44.1046 26 45 26.8954 45 28V44C45 45.1046 44.1046 46 43 46H37C35.8954 46 35 45.1046 35 44V42C35 39.7909 33.2091 38 31 38H6.69573C7.02147 39.379 7.45703 40.7156 7.99265 42H29C30.1046 42 31 42.8954 31 44V52C31 53.1046 30.1046 54 29 54H18.1373C22.1498 56.5337 26.9037 58 32 58Z" fill="#B8621B"/>
</svg>
