<svg width="64" height="64" viewBox="0 0 64 64" fill="none" xmlns="http://www.w3.org/2000/svg">
<path fill-rule="evenodd" clip-rule="evenodd" d="M32 62C48.5685 62 62 48.5685 62 32C62 15.4315 48.5685 2 32 2C15.4315 2 2 15.4315 2 32C2 48.5685 15.4315 62 32 62ZM32 58C37.0963 58 41.8502 56.5337 45.8627 54H29C27.8954 54 27 53.1046 27 52C27 50.8954 27.8954 50 29 50H50.7617C51.937 48.7753 52.9935 47.4358 53.9127 46H48C46.8954 46 46 45.1046 46 44C46 42.8954 46.8954 42 48 42H56L56.0073 42C56.543 40.7156 56.9785 39.379 57.3043 38H21C19.8954 38 19 37.1046 19 36C19 34.8954 19.8954 34 21 34H57.9242C57.9744 33.3399 58 32.6729 58 32C58 31.3271 57.9744 30.6601 57.9242 30H51C49.8954 30 49 29.1046 49 28C49 26.8954 49.8954 26 51 26H57.3043C56.9785 24.621 56.543 23.2844 56.0073 22L56 22H24C22.8954 22 22 21.1046 22 20C22 18.8954 22.8954 18 24 18H53.9127C52.9935 16.5642 51.937 15.2247 50.7617 14H43C41.8954 14 41 13.1046 41 12C41 10.8954 41.8954 10 43 10H45.8627C41.8502 7.46629 37.0963 6 32 6C26.9037 6 22.1498 7.46629 18.1373 10H35C36.1046 10 37 10.8954 37 12C37 13.1046 36.1046 14 35 14H13.2383C12.063 15.2247 11.0065 16.5642 10.0873 18H16C17.1046 18 18 18.8954 18 20C18 21.1046 17.1046 22 16 22H8L7.99266 22C7.45703 23.2844 7.02147 24.621 6.69573 26H43C44.1046 26 45 26.8954 45 28C45 29.1046 44.1046 30 43 30H6.07578C6.02557 30.6601 6 31.3271 6 32C6 32.6729 6.02557 33.3399 6.07578 34H13C14.1046 34 15 34.8954 15 36C15 37.1046 14.1046 38 13 38H6.69573C7.02147 39.379 7.45703 40.7156 7.99265 42H40C41.1046 42 42 42.8954 42 44C42 45.1046 41.1046 46 40 46H10.0873C11.0065 47.4358 12.063 48.7753 13.2383 50H21C22.1046 50 23 50.8954 23 52C23 53.1046 22.1046 54 21 54H18.1373C22.1498 56.5337 26.9037 58 32 58Z" fill="#0052C2"/>
</svg>
