<svg width="64" height="64" viewBox="0 0 64 64" fill="none" xmlns="http://www.w3.org/2000/svg">
<path fill-rule="evenodd" clip-rule="evenodd" d="M51.1935 42.7603C47.4249 49.468 40.2417 54 32 54C23.7583 54 16.5751 49.468 12.8065 42.7603C6.20276 40.1921 2 36.3252 2 32C2 27.6748 6.20282 23.8079 12.8066 21.2397C16.5752 14.532 23.7584 10 32 10C40.2416 10 47.4248 14.532 51.1934 21.2397C57.7972 23.8079 62 27.6748 62 32C62 36.3252 57.7972 40.1921 51.1935 42.7603ZM44.7874 44.6682C41.5255 47.9607 37.0009 50 32 50C26.9991 50 22.4745 47.9607 19.2126 44.6682C23.0917 45.5225 27.4263 46 32 46C36.5737 46 40.9083 45.5225 44.7874 44.6682ZM48.35 39.5388C43.8897 41.054 38.2422 42 32 42C25.7578 42 20.1103 41.054 15.65 39.5388C15.4186 39.0378 15.2097 38.5244 15.0242 38H35C36.1046 38 37 37.1045 37 36C37 34.8955 36.1046 34 35 34H14.1099C14.0373 33.3433 14 32.676 14 32C14 31.324 14.0373 30.6567 14.1099 30H22C23.1046 30 24 29.1045 24 28C24 26.8955 23.1046 26 22 26H15.0242C15.5276 24.5759 16.205 23.2341 17.0311 22H31C32.1046 22 33 21.1045 33 20C33 18.8955 32.1046 18 31 18H20.6853C23.7768 15.4983 27.7134 14 32 14C36.2866 14 40.2232 15.4983 43.3147 18H39C37.8954 18 37 18.8955 37 20C37 21.1045 37.8954 22 39 22H46.9689C47.795 23.2341 48.4724 24.5759 48.9758 26H30C28.8954 26 28 26.8955 28 28C28 29.1045 28.8954 30 30 30H49.8901C49.9627 30.6567 50 31.324 50 32C50 32.676 49.9627 33.3433 49.8901 34H43C41.8954 34 41 34.8955 41 36C41 37.1045 41.8954 38 43 38H48.9758C48.9036 38.2041 48.8279 38.4065 48.7487 38.6072C48.6243 38.9221 48.4913 39.2329 48.35 39.5388ZM53.3499 26.6697C56.971 28.7498 58 30.7939 58 32C58 33.2061 56.971 35.2502 53.3499 37.3303C53.7746 35.6235 54 33.8381 54 32C54 30.1619 53.7746 28.3765 53.3499 26.6697ZM10.6501 26.6697C7.02899 28.7498 6 30.7939 6 32C6 33.2061 7.02899 35.2502 10.6501 37.3303C10.2254 35.6235 10 33.8381 10 32C10 30.1619 10.2254 28.3765 10.6501 26.6697Z" fill="#0465A1"/>
</svg>
