<svg width="64" height="64" viewBox="0 0 64 64" fill="none" xmlns="http://www.w3.org/2000/svg">
<path fill-rule="evenodd" clip-rule="evenodd" d="M32 62C48.5686 62 62 48.5686 62 32C62 15.4314 48.5686 2 32 2C15.4314 2 2 15.4314 2 32C2 48.5686 15.4314 62 32 62ZM39 54C39 51.7908 37.2091 50 35 50H25C22.7908 50 21 48.2092 21 46V42C21 39.7908 19.2091 38 17 38H6.6958C6.38904 36.7017 6.17969 35.3657 6.07581 34H26C28.2091 34 30 32.2092 30 30C30 27.7908 31.7909 26 34 26H35C37.2091 26 39 24.2092 39 22C39 19.7908 37.2091 18 35 18H10.0873C13.4904 12.6848 18.7742 8.68945 25 6.95312V10C25 12.2092 26.7909 14 29 14H39C41.2092 14 43 15.791 43 18V22C43 24.2092 44.7909 26 47 26H57.3042C57.611 27.2983 57.8203 28.6343 57.9242 30H38C35.7909 30 34 31.7908 34 34C34 36.2092 32.2091 38 30 38H29C26.7909 38 25 39.7908 25 42C25 44.2092 26.7909 46 29 46H53.9127C50.5096 51.3152 45.2258 55.3105 39 57.0469V54Z" fill="#D59231"/>
</svg>
